<svg width="1653" height="993" xmlns="http://www.w3.org/2000/svg" xmlns:xlink="http://www.w3.org/1999/xlink" overflow="hidden"><defs><clipPath id="clip0"><rect x="819" y="18" width="1653" height="993"/></clipPath><clipPath id="clip1"><rect x="820" y="19" width="1650" height="990"/></clipPath><clipPath id="clip2"><rect x="820" y="19" width="1650" height="990"/></clipPath><clipPath id="clip3"><rect x="930" y="69" width="1493" height="732"/></clipPath><clipPath id="clip4"><rect x="930" y="69" width="1493" height="732"/></clipPath><clipPath id="clip5"><rect x="820" y="19" width="1650" height="990"/></clipPath><clipPath id="clip6"><rect x="820" y="19" width="1650" height="990"/></clipPath><clipPath id="clip7"><rect x="820" y="19" width="1650" height="990"/></clipPath><clipPath id="clip8"><rect x="820" y="19" width="1650" height="990"/></clipPath><clipPath id="clip9"><rect x="820" y="19" width="1650" height="990"/></clipPath><clipPath id="clip10"><rect x="820" y="19" width="1650" height="990"/></clipPath><clipPath id="clip11"><rect x="820" y="19" width="1650" height="990"/></clipPath><clipPath id="clip12"><rect x="820" y="19" width="1650" height="990"/></clipPath><clipPath id="clip13"><rect x="820" y="19" width="1650" height="990"/></clipPath><clipPath id="clip14"><rect x="820" y="19" width="1650" height="990"/></clipPath><clipPath id="clip15"><rect x="820" y="19" width="1650" height="990"/></clipPath><clipPath id="clip16"><rect x="820" y="19" width="1650" height="990"/></clipPath><clipPath id="clip17"><rect x="820" y="19" width="1650" height="990"/></clipPath><clipPath id="clip18"><rect x="820" y="19" width="1650" height="990"/></clipPath><clipPath id="clip19"><rect x="820" y="19" width="1650" height="990"/></clipPath><clipPath id="clip20"><rect x="820" y="19" width="1650" height="990"/></clipPath><clipPath id="clip21"><rect x="820" y="19" width="1650" height="990"/></clipPath><clipPath id="clip22"><rect x="820" y="19" width="1650" height="990"/></clipPath></defs><g clip-path="url(#clip0)" transform="translate(-819 -18)"><rect x="820" y="18.9999" width="1650" height="990" fill="#FFFFFF"/><g clip-path="url(#clip1)"><path d="M930.5 676.522 2420.5 676.522M930.5 555.518 2420.5 555.518M930.5 434.514 2420.5 434.514M930.5 312.51 2420.5 312.51M930.5 191.506 2420.5 191.506M930.5 69.4999 2420.5 69.4999" stroke="#D9D9D9" stroke-width="3.4375" stroke-linejoin="round" stroke-miterlimit="10" fill="none"/></g><g clip-path="url(#clip2)"><path d="M930.5 798.5 2420.5 798.5" stroke="#D9D9D9" stroke-width="3.4375" stroke-linejoin="round" stroke-miterlimit="10" fill="none" fill-rule="evenodd"/></g><g clip-path="url(#clip3)"><path d="M1037 264 1249.04 288.009 1462.05 313.01 1675.05 313.01 1888.06 337.011 2101.07 361 2314 337.011" stroke="#4472C4" stroke-width="10.3125" stroke-linecap="round" stroke-linejoin="round" stroke-miterlimit="10" fill="none"/></g><g clip-path="url(#clip4)"><path d="M1037 191.006 1249.04 167 1462.05 167 1675.05 216.007 1888.06 288 2101.07 288 2314 264.009" stroke="#ED7D31" stroke-width="10.3125" stroke-linecap="round" stroke-linejoin="round" stroke-miterlimit="10" fill="none"/></g><g clip-path="url(#clip5)"><text fill="#595959" font-family="Calibri,Calibri_MSFontService,sans-serif" font-weight="400" font-size="41" transform="matrix(1 0 0 1 871.108 810)">0</text></g><g clip-path="url(#clip6)"><text fill="#595959" font-family="Calibri,Calibri_MSFontService,sans-serif" font-weight="400" font-size="41" transform="matrix(1 0 0 1 871.108 688)">5</text></g><g clip-path="url(#clip7)"><text fill="#595959" font-family="Calibri,Calibri_MSFontService,sans-serif" font-weight="400" font-size="41" transform="matrix(1 0 0 1 850.208 567)">10</text></g><g clip-path="url(#clip8)"><text fill="#595959" font-family="Calibri,Calibri_MSFontService,sans-serif" font-weight="400" font-size="41" transform="matrix(1 0 0 1 850.208 446)">15</text></g><g clip-path="url(#clip9)"><text fill="#595959" font-family="Calibri,Calibri_MSFontService,sans-serif" font-weight="400" font-size="41" transform="matrix(1 0 0 1 850.208 324)">20</text></g><g clip-path="url(#clip10)"><text fill="#595959" font-family="Calibri,Calibri_MSFontService,sans-serif" font-weight="400" font-size="41" transform="matrix(1 0 0 1 850.208 203)">25</text></g><g clip-path="url(#clip11)"><text fill="#595959" font-family="Calibri,Calibri_MSFontService,sans-serif" font-weight="400" font-size="41" transform="matrix(1 0 0 1 850.208 81)">30</text></g><g clip-path="url(#clip12)"><text fill="#595959" font-family="Calibri,Calibri_MSFontService,sans-serif" font-weight="400" font-size="41" transform="matrix(1 0 0 1 1015.78 863)">20</text></g><g clip-path="url(#clip13)"><text fill="#595959" font-family="Calibri,Calibri_MSFontService,sans-serif" font-weight="400" font-size="41" transform="matrix(1 0 0 1 1228.6 863)">21</text></g><g clip-path="url(#clip14)"><text fill="#595959" font-family="Calibri,Calibri_MSFontService,sans-serif" font-weight="400" font-size="41" transform="matrix(1 0 0 1 1441.42 863)">22</text></g><g clip-path="url(#clip15)"><text fill="#595959" font-family="Calibri,Calibri_MSFontService,sans-serif" font-weight="400" font-size="41" transform="matrix(1 0 0 1 1654.24 863)">23</text></g><g clip-path="url(#clip16)"><text fill="#595959" font-family="Calibri,Calibri_MSFontService,sans-serif" font-weight="400" font-size="41" transform="matrix(1 0 0 1 1867.06 863)">24</text></g><g clip-path="url(#clip17)"><text fill="#595959" font-family="Calibri,Calibri_MSFontService,sans-serif" font-weight="400" font-size="41" transform="matrix(1 0 0 1 2079.87 863)">25</text></g><g clip-path="url(#clip18)"><text fill="#595959" font-family="Calibri,Calibri_MSFontService,sans-serif" font-weight="400" font-size="41" transform="matrix(1 0 0 1 2292.69 863)">26</text></g><g clip-path="url(#clip19)"><path d="M1455 943 1543 943" stroke="#4472C4" stroke-width="10.3125" stroke-linecap="round" stroke-linejoin="round" stroke-miterlimit="10" fill="none" fill-rule="evenodd"/></g><g clip-path="url(#clip20)"><text fill="#595959" font-family="Yu Gothic,Yu Gothic_MSFontService,sans-serif" font-weight="400" font-size="41" transform="matrix(1 0 0 1 1551.8 956)">最低</text></g><g clip-path="url(#clip21)"><path d="M1673 943 1761 943" stroke="#ED7D31" stroke-width="10.3125" stroke-linecap="round" stroke-linejoin="round" stroke-miterlimit="10" fill="none" fill-rule="evenodd"/></g><g clip-path="url(#clip22)"><text fill="#595959" font-family="Yu Gothic,Yu Gothic_MSFontService,sans-serif" font-weight="400" font-size="41" transform="matrix(1 0 0 1 1769.97 956)">最高</text></g><rect x="820.5" y="19.5001" width="1650" height="990" stroke="#D9D9D9" stroke-width="3.4375" stroke-linejoin="round" stroke-miterlimit="10" fill="none"/></g></svg>